<svg width="102" height="18" viewBox="0 0 102 18" fill="none" xmlns="http://www.w3.org/2000/svg">
<path d="M0.553711 1.07129H3.0498V5.94922H7.37402V1.07129H9.86133V14H7.37402V8.33105H3.0498V14H0.553711V1.07129ZM22.1309 9.91309H14.4229C14.5342 10.5928 14.8301 11.1348 15.3105 11.5391C15.7969 11.9375 16.415 12.1367 17.165 12.1367C18.0615 12.1367 18.832 11.8232 19.4766 11.1963L21.498 12.1455C20.9941 12.8604 20.3906 13.3906 19.6875 13.7363C18.9844 14.0762 18.1494 14.2461 17.1826 14.2461C15.6826 14.2461 14.4609 13.7744 13.5176 12.8311C12.5742 11.8818 12.1025 10.6953 12.1025 9.27148C12.1025 7.8125 12.5713 6.60254 13.5088 5.6416C14.4521 4.6748 15.6328 4.19141 17.0508 4.19141C18.5566 4.19141 19.7812 4.6748 20.7246 5.6416C21.668 6.60254 22.1396 7.87402 22.1396 9.45605L22.1309 9.91309ZM19.7227 8.02344C19.5645 7.49023 19.251 7.05664 18.7822 6.72266C18.3193 6.38867 17.7803 6.22168 17.165 6.22168C16.4971 6.22168 15.9111 6.40918 15.4072 6.78418C15.0908 7.01855 14.7979 7.43164 14.5283 8.02344H19.7227ZM24.0645 4.4375H26.4727V5.53613C26.8828 5.08496 27.3369 4.74805 27.835 4.52539C28.3389 4.30273 28.8867 4.19141 29.4785 4.19141C30.0762 4.19141 30.6152 4.33789 31.0957 4.63086C31.5762 4.92383 31.9629 5.35156 32.2559 5.91406C32.6367 5.35156 33.1025 4.92383 33.6533 4.63086C34.21 4.33789 34.8164 4.19141 35.4727 4.19141C36.1523 4.19141 36.75 4.34961 37.2656 4.66602C37.7812 4.98242 38.1504 5.39551 38.373 5.90527C38.6016 6.41504 38.7158 7.24414 38.7158 8.39258V14H36.2988V9.14844C36.2988 8.06445 36.1641 7.33203 35.8945 6.95117C35.625 6.56445 35.2207 6.37109 34.6816 6.37109C34.2715 6.37109 33.9023 6.48828 33.5742 6.72266C33.252 6.95703 33.0117 7.28223 32.8535 7.69824C32.6953 8.1084 32.6162 8.77051 32.6162 9.68457V14H30.1992V9.36816C30.1992 8.5127 30.1348 7.89453 30.0059 7.51367C29.8828 7.12695 29.6953 6.83984 29.4434 6.65234C29.1914 6.46484 28.8867 6.37109 28.5293 6.37109C28.1309 6.37109 27.7676 6.49121 27.4395 6.73145C27.1172 6.96582 26.874 7.29688 26.71 7.72461C26.5518 8.15234 26.4727 8.82617 26.4727 9.74609V14H24.0645V4.4375ZM41.9502 0.5C42.3721 0.5 42.7324 0.652344 43.0312 0.957031C43.3359 1.26172 43.4883 1.63086 43.4883 2.06445C43.4883 2.49219 43.3389 2.8584 43.04 3.16309C42.7412 3.46191 42.3838 3.61133 41.9678 3.61133C41.54 3.61133 41.1738 3.45898 40.8691 3.1543C40.5703 2.84375 40.4209 2.46875 40.4209 2.0293C40.4209 1.60742 40.5703 1.24707 40.8691 0.948242C41.168 0.649414 41.5283 0.5 41.9502 0.5ZM40.7461 4.4375H43.1543V14H40.7461V4.4375Z" fill="white"/>
<path d="M50.2207 5.50977L49.5527 6.50293C49.0137 5.73535 48.375 5.35156 47.6367 5.35156C47.2148 5.35156 46.8545 5.48926 46.5557 5.76465C46.2568 6.04004 46.1074 6.34473 46.1074 6.67871C46.1074 6.93652 46.1982 7.18262 46.3799 7.41699C46.5557 7.65137 46.957 7.9707 47.584 8.375C48.498 8.9668 49.1016 9.48242 49.3945 9.92188C49.6816 10.3672 49.8252 10.8799 49.8252 11.46C49.8252 12.2627 49.5439 12.9277 48.9814 13.4551C48.4248 13.9824 47.6982 14.2461 46.8018 14.2461C45.6182 14.2461 44.6221 13.7217 43.8135 12.6729L44.5605 11.8027C45.2695 12.6641 46.04 13.0947 46.8721 13.0947C47.3467 13.0947 47.7598 12.9277 48.1113 12.5938C48.4629 12.2598 48.6387 11.873 48.6387 11.4336C48.6387 11.0762 48.5068 10.7334 48.2432 10.4053C48.0732 10.1943 47.6162 9.83691 46.8721 9.33301C46.0693 8.78223 45.542 8.3252 45.29 7.96191C45.0381 7.60449 44.9121 7.2002 44.9121 6.74902C44.9121 6.04004 45.1787 5.43652 45.7119 4.93848C46.2451 4.44043 46.9189 4.19141 47.7334 4.19141C48.2139 4.19141 48.6475 4.28809 49.0342 4.48145C49.4268 4.6748 49.8223 5.01758 50.2207 5.50977ZM52.9102 4.4375H54.1582L53.9736 5.87012C55.0811 4.75098 56.3467 4.19141 57.7705 4.19141C59.0771 4.19141 60.1465 4.61035 60.9785 5.44824C61.8164 6.28613 62.2354 7.36426 62.2354 8.68262C62.2354 10.2061 61.6934 11.5156 60.6094 12.6113C59.5254 13.7012 58.248 14.2461 56.7773 14.2461C55.9805 14.2461 55.2803 14.0791 54.6768 13.7451C54.0732 13.4053 53.5605 12.8809 53.1387 12.1719L52.4443 17.498H51.1699L52.9102 4.4375ZM57.6387 5.31641C56.8535 5.31641 56.1328 5.50391 55.4766 5.87891C54.8262 6.24805 54.3105 6.78125 53.9297 7.47852C53.5488 8.17578 53.3584 8.93457 53.3584 9.75488C53.3584 10.7451 53.6719 11.5508 54.2988 12.1719C54.9316 12.793 55.7461 13.1035 56.7422 13.1035C57.9199 13.1035 58.9277 12.6787 59.7656 11.8291C60.6035 10.9795 61.0225 9.93652 61.0225 8.7002C61.0225 7.68652 60.709 6.86914 60.082 6.24805C59.4609 5.62695 58.6465 5.31641 57.6387 5.31641ZM65.584 0.746094H66.7793L66.0762 5.8877C67.0605 4.75684 68.1855 4.19141 69.4512 4.19141C70.418 4.19141 71.2061 4.49316 71.8154 5.09668C72.4307 5.7002 72.7383 6.48535 72.7383 7.45215C72.7383 7.98535 72.6738 8.70312 72.5449 9.60547L71.9473 14H70.7344L71.332 9.60547C71.4551 8.7207 71.5166 8.01758 71.5166 7.49609C71.5166 6.83984 71.3115 6.30957 70.9014 5.90527C70.4912 5.50098 69.9521 5.29883 69.2842 5.29883C68.6631 5.29883 68.0742 5.46582 67.5176 5.7998C66.9668 6.13379 66.5391 6.58496 66.2344 7.15332C65.9355 7.72168 65.7012 8.62402 65.5312 9.86035L64.96 14H63.7646L65.584 0.746094ZM84.6387 9.46484H76.1133C76.0957 10.6016 76.3916 11.4951 77.001 12.1455C77.6104 12.7959 78.4219 13.1211 79.4355 13.1211C80.1094 13.1211 80.7334 12.9834 81.3076 12.708C81.8818 12.4326 82.3564 12.0459 82.7314 11.5479L83.6455 12.2949C83.1826 12.8867 82.5762 13.3613 81.8262 13.7188C81.082 14.0703 80.2764 14.2461 79.4092 14.2461C77.9092 14.2461 76.7812 13.7832 76.0254 12.8574C75.2754 11.9258 74.9004 10.8799 74.9004 9.71973C74.9004 8.77051 75.1523 7.85645 75.6562 6.97754C76.166 6.09863 76.8457 5.41602 77.6953 4.92969C78.5449 4.4375 79.4648 4.19141 80.4551 4.19141C81.6797 4.19141 82.6934 4.60742 83.4961 5.43945C84.2988 6.26562 84.7002 7.32031 84.7002 8.60352C84.7002 8.83789 84.6797 9.125 84.6387 9.46484ZM83.5137 8.40137C83.4785 7.49902 83.1709 6.76953 82.5908 6.21289C82.0107 5.65039 81.2812 5.36914 80.4023 5.36914C79.4473 5.36914 78.6035 5.63867 77.8711 6.17773C77.1445 6.7168 76.6289 7.45801 76.3242 8.40137H83.5137ZM87.2666 4.4375H88.4883L88.3301 5.6416C88.6582 5.18457 89.0537 4.83008 89.5166 4.57812C89.9795 4.32031 90.4541 4.19141 90.9404 4.19141C91.2861 4.19141 91.6465 4.27344 92.0215 4.4375L91.4414 5.5625C91.1367 5.43945 90.8818 5.37793 90.6768 5.37793C90.249 5.37793 89.8242 5.52734 89.4023 5.82617C88.9863 6.125 88.6465 6.56152 88.3828 7.13574C88.125 7.7041 87.9053 8.6416 87.7236 9.94824L87.1611 14H85.9658L87.2666 4.4375ZM101.76 9.46484H93.2344C93.2168 10.6016 93.5127 11.4951 94.1221 12.1455C94.7314 12.7959 95.543 13.1211 96.5566 13.1211C97.2305 13.1211 97.8545 12.9834 98.4287 12.708C99.0029 12.4326 99.4775 12.0459 99.8525 11.5479L100.767 12.2949C100.304 12.8867 99.6973 13.3613 98.9473 13.7188C98.2031 14.0703 97.3975 14.2461 96.5303 14.2461C95.0303 14.2461 93.9023 13.7832 93.1465 12.8574C92.3965 11.9258 92.0215 10.8799 92.0215 9.71973C92.0215 8.77051 92.2734 7.85645 92.7773 6.97754C93.2871 6.09863 93.9668 5.41602 94.8164 4.92969C95.666 4.4375 96.5859 4.19141 97.5762 4.19141C98.8008 4.19141 99.8145 4.60742 100.617 5.43945C101.42 6.26562 101.821 7.32031 101.821 8.60352C101.821 8.83789 101.801 9.125 101.76 9.46484ZM100.635 8.40137C100.6 7.49902 100.292 6.76953 99.7119 6.21289C99.1318 5.65039 98.4023 5.36914 97.5234 5.36914C96.5684 5.36914 95.7246 5.63867 94.9922 6.17773C94.2656 6.7168 93.75 7.45801 93.4453 8.40137H100.635Z" fill="#03AB27"/>
</svg>
