<svg width="22" height="23" viewBox="0 0 22 23" fill="none" xmlns="http://www.w3.org/2000/svg">
<path d="M4.64989 17.7108C3.86502 16.9259 4.38542 15.2794 3.98445 14.3153C3.58348 13.3513 2.04785 12.5067 2.04785 11.4403C2.04785 10.3739 3.56642 9.5634 3.98445 8.56524C4.40249 7.56708 3.86502 5.95467 4.64989 5.16979C5.43477 4.38491 7.08131 4.90532 8.04534 4.50435C9.00938 4.10338 9.85398 2.56775 10.9204 2.56775C11.9868 2.56775 12.7973 4.08632 13.7954 4.50435C14.7936 4.92238 16.406 4.38491 17.1909 5.16979C17.9758 5.95467 17.4554 7.60121 17.8563 8.56524C18.2573 9.52928 19.7929 10.3739 19.7929 11.4403C19.7929 12.5067 18.2744 13.3172 17.8563 14.3153C17.4383 15.3135 17.9758 16.9259 17.1909 17.7108C16.406 18.4957 14.7595 17.9752 13.7954 18.3762C12.8314 18.7772 11.9868 20.3128 10.9204 20.3128C9.85398 20.3128 9.0435 18.7943 8.04534 18.3762C7.04718 17.9582 5.43477 18.4957 4.64989 17.7108Z" stroke="#4A4B68" stroke-width="1.2" stroke-linecap="round" stroke-linejoin="round"/>
<path d="M14.6735 9.39282L9.66568 14.1703L7.16602 11.7816" stroke="#4A4B68" stroke-width="1.2" stroke-linecap="round" stroke-linejoin="round"/>
</svg>
