<svg width="22" height="23" viewBox="0 0 22 23" fill="none" xmlns="http://www.w3.org/2000/svg">
<path opacity="0.7" d="M8.87207 8.20911H12.9671" stroke="#4A4B68" stroke-width="1.2" stroke-linecap="round" stroke-linejoin="round"/>
<path d="M19.5881 13.524L15.8599 5.05246C15.4749 4.67162 14.9553 4.45801 14.4138 4.45801C13.8723 4.45801 13.3527 4.67162 12.9678 5.05246V14.6928" stroke="#4A4B68" stroke-width="1.2" stroke-linecap="round" stroke-linejoin="round"/>
<path d="M8.87321 14.6928V5.05246C8.48827 4.67162 7.96864 4.45801 7.42715 4.45801C6.88566 4.45801 6.36603 4.67162 5.9811 5.05246L2.25293 13.524" stroke="#4A4B68" stroke-width="1.2" stroke-linecap="round" stroke-linejoin="round"/>
<path d="M5.46037 18.1054C7.34504 18.1054 8.87288 16.5776 8.87288 14.6929C8.87288 12.8082 7.34504 11.2804 5.46037 11.2804C3.57569 11.2804 2.04785 12.8082 2.04785 14.6929C2.04785 16.5776 3.57569 18.1054 5.46037 18.1054Z" stroke="#4A4B68" stroke-width="1.2" stroke-linecap="round" stroke-linejoin="round"/>
<path d="M16.3803 18.1054C18.265 18.1054 19.7928 16.5776 19.7928 14.6929C19.7928 12.8082 18.265 11.2804 16.3803 11.2804C14.4956 11.2804 12.9678 12.8082 12.9678 14.6929C12.9678 16.5776 14.4956 18.1054 16.3803 18.1054Z" stroke="#4A4B68" stroke-width="1.2" stroke-linecap="round" stroke-linejoin="round"/>
</svg>
