<svg width="22" height="23" viewBox="0 0 22 23" fill="none" xmlns="http://www.w3.org/2000/svg">
<path d="M6.48349 18.5851C7.80276 18.5851 8.87225 17.5157 8.87225 16.1964C8.87225 14.8771 7.80276 13.8076 6.48349 13.8076C5.16421 13.8076 4.09473 14.8771 4.09473 16.1964C4.09473 17.5157 5.16421 18.5851 6.48349 18.5851Z" stroke="#4A4B68" stroke-width="1.2" stroke-linecap="round" stroke-linejoin="round"/>
<path d="M15.3565 18.5851C16.6758 18.5851 17.7453 17.5157 17.7453 16.1964C17.7453 14.8771 16.6758 13.8076 15.3565 13.8076C14.0373 13.8076 12.9678 14.8771 12.9678 16.1964C12.9678 17.5157 14.0373 18.5851 15.3565 18.5851Z" stroke="#4A4B68" stroke-width="1.2" stroke-linecap="round" stroke-linejoin="round"/>
<path d="M8.87207 16.1964H12.9671" stroke="#4A4B68" stroke-width="1.2" stroke-linecap="round" stroke-linejoin="round"/>
<path d="M0.682617 11.0776H21.1577" stroke="#4A4B68" stroke-width="1.2" stroke-linecap="round" stroke-linejoin="round"/>
<path d="M3.41211 11.0776L7.61803 5.07162C7.6814 4.98059 7.76599 4.90638 7.8645 4.85541C7.963 4.80443 8.07244 4.77823 8.18335 4.77907C8.29425 4.77991 8.40328 4.80777 8.501 4.86023C8.59872 4.91269 8.68218 4.98818 8.74416 5.08015L10.348 7.4945C10.4101 7.58956 10.4948 7.66765 10.5946 7.7217C10.6944 7.77576 10.8061 7.80406 10.9196 7.80406C11.0331 7.80406 11.1449 7.77576 11.2447 7.7217C11.3445 7.66765 11.4292 7.58956 11.4912 7.4945L13.0951 5.08015C13.1571 4.98818 13.2406 4.91269 13.3383 4.86023C13.436 4.80777 13.545 4.77991 13.6559 4.77907C13.7668 4.77823 13.8763 4.80443 13.9748 4.85541C14.0733 4.90638 14.1579 4.98059 14.2212 5.07162L18.4272 11.0776" stroke="#4A4B68" stroke-width="1.2" stroke-linecap="round" stroke-linejoin="round"/>
</svg>
