<svg width="22" height="22" viewBox="0 0 22 22" fill="none" xmlns="http://www.w3.org/2000/svg">
<path opacity="0.7" d="M18.2054 9.35042L11.3803 3.14818C11.2545 3.03307 11.0902 2.96924 10.9196 2.96924C10.7491 2.96924 10.5848 3.03307 10.459 3.14818L3.63392 9.35042C3.56524 9.41528 3.51024 9.49323 3.47214 9.57968C3.43405 9.66612 3.41364 9.75931 3.41211 9.85377V17.7452C3.41211 17.9262 3.48402 18.0998 3.61201 18.2278C3.74 18.3558 3.9136 18.4277 4.09461 18.4277H17.7447C17.9257 18.4277 18.0993 18.3558 18.2273 18.2278C18.3553 18.0998 18.4272 17.9262 18.4272 17.7452V9.85377C18.4256 9.75931 18.4052 9.66612 18.3671 9.57968C18.329 9.49323 18.274 9.41528 18.2054 9.35042V9.35042Z" stroke="#4A4B68" stroke-linecap="round" stroke-linejoin="round"/>
<path d="M15 13.26C15 13.26 12.9231 14.82 11 14.82C9.07689 14.82 7 13.26 7 13.26" stroke="#49536E" stroke-width="0.5" stroke-linecap="round"/>
</svg>
