<svg width="22" height="23" viewBox="0 0 22 23" fill="none" xmlns="http://www.w3.org/2000/svg">
<path opacity="0.7" d="M10.5946 2.88318L10.5951 2.88288C10.6925 2.82174 10.8052 2.78931 10.9202 2.78931C11.0352 2.78931 11.1478 2.82174 11.2452 2.88288L11.2457 2.88318L20.1181 8.34309C20.1181 8.34312 20.1182 8.34315 20.1182 8.34318C20.2327 8.41416 20.3209 8.52047 20.3696 8.64605C20.4183 8.77168 20.4247 8.90975 20.3879 9.03936C20.3511 9.16897 20.2731 9.28308 20.1657 9.36441C20.0583 9.44574 19.9273 9.48986 19.7926 9.4901H17.7452H17.6827V9.5526V15.0126V15.0751H17.7452H19.1102C19.2746 15.0751 19.4323 15.1404 19.5486 15.2567C19.6649 15.373 19.7302 15.5307 19.7302 15.6951C19.7302 15.8596 19.6649 16.0173 19.5486 16.1335C19.4323 16.2498 19.2746 16.3151 19.1102 16.3151H2.73013C2.56569 16.3151 2.40799 16.2498 2.29172 16.1335C2.17544 16.0173 2.11012 15.8596 2.11012 15.6951C2.11012 15.5307 2.17544 15.373 2.29172 15.2567C2.40799 15.1404 2.56569 15.0751 2.73013 15.0751H4.09513H4.15763V15.0126V9.5526V9.4901H4.09513H2.04762H2.04756C1.91274 9.49024 1.78156 9.44644 1.67387 9.36532C1.56619 9.28421 1.48788 9.17021 1.4508 9.0406C1.41389 8.91068 1.4204 8.77227 1.46935 8.6464C1.51831 8.5205 1.60705 8.41403 1.72206 8.3432C1.72207 8.34319 1.72208 8.34319 1.72208 8.34319L10.5946 2.88318ZM21.0952 18.4251C21.0952 18.5896 21.0299 18.7473 20.9136 18.8635C20.7973 18.9798 20.6396 19.0451 20.4752 19.0451H1.36512C1.20069 19.0451 1.04298 18.9798 0.926711 18.8635C0.810439 18.7473 0.745117 18.5896 0.745117 18.4251C0.745117 18.2607 0.810439 18.103 0.926712 17.9867C1.04298 17.8705 1.20068 17.8051 1.36512 17.8051H20.4752C20.6396 17.8051 20.7973 17.8705 20.9136 17.9867C21.0299 18.103 21.0952 18.2607 21.0952 18.4251ZM12.2227 14.3301C12.2227 14.5277 12.3012 14.7172 12.4409 14.8569C12.5806 14.9966 12.7701 15.0751 12.9677 15.0751C13.1653 15.0751 13.3547 14.9966 13.4945 14.8569C13.6342 14.7172 13.7127 14.5277 13.7127 14.3301V10.2351C13.7127 10.0375 13.6342 9.84802 13.4945 9.70831C13.3547 9.56859 13.1653 9.4901 12.9677 9.4901C12.7701 9.4901 12.5806 9.56859 12.4409 9.70831C12.3012 9.84802 12.2227 10.0375 12.2227 10.2351V14.3301ZM8.12765 14.3301C8.12765 14.5277 8.20614 14.7172 8.34585 14.8569C8.48557 14.9966 8.67506 15.0751 8.87265 15.0751C9.07024 15.0751 9.25973 14.9966 9.39945 14.8569C9.53916 14.7172 9.61765 14.5277 9.61765 14.3301V10.2351C9.61765 10.0375 9.53916 9.84802 9.39945 9.70831C9.25973 9.56859 9.07024 9.4901 8.87265 9.4901C8.67506 9.4901 8.48557 9.56859 8.34585 9.70831C8.20614 9.84802 8.12765 10.0375 8.12765 10.2351V14.3301Z" fill="#03AB27" stroke="#03AB27" stroke-width="0.125"/>
</svg>
